<svg width="40" height="40" viewBox="0 0 40 40" fill="none" xmlns="http://www.w3.org/2000/svg">
<path d="M20 0C8.956 0 0 8.956 0 20C0 31.044 8.956 40 20 40C31.044 40 40 31.044 40 20C40 8.956 31.048 0 20 0ZM9.868 20.672L9.952 20.536L15.156 12.396C15.232 12.28 15.412 12.292 15.468 12.42C16.336 14.368 17.088 16.792 16.736 18.3C16.588 18.92 16.176 19.76 15.712 20.536C15.652 20.648 15.588 20.76 15.516 20.868C15.484 20.916 15.428 20.944 15.368 20.944H10.02C9.876 20.944 9.792 20.788 9.868 20.672ZM33.056 23.472C33.056 23.548 33.012 23.612 32.948 23.64C32.544 23.812 31.164 24.448 30.592 25.244C29.128 27.28 28.012 30.192 25.512 30.192H15.088C11.392 30.192 8.4 27.188 8.4 23.48V23.36C8.4 23.264 8.48 23.184 8.58 23.184H14.388C14.504 23.184 14.588 23.288 14.58 23.404C14.536 23.78 14.608 24.168 14.788 24.52C15.132 25.22 15.848 25.656 16.62 25.656H19.496V23.412H16.652C16.508 23.412 16.42 23.244 16.504 23.124C16.536 23.076 16.568 23.028 16.608 22.972C16.876 22.588 17.26 21.996 17.644 21.32C17.904 20.864 18.156 20.376 18.36 19.888C18.4 19.8 18.432 19.708 18.468 19.62C18.524 19.464 18.58 19.316 18.62 19.172C18.66 19.048 18.696 18.92 18.728 18.8C18.824 18.384 18.864 17.944 18.864 17.488C18.864 17.308 18.856 17.12 18.84 16.944C18.832 16.748 18.808 16.552 18.784 16.356C18.768 16.184 18.736 16.012 18.704 15.836C18.66 15.576 18.604 15.316 18.54 15.056L18.516 14.956C18.468 14.776 18.424 14.608 18.368 14.428C18.204 13.868 18.02 13.32 17.82 12.808C17.748 12.604 17.668 12.408 17.584 12.216C17.464 11.92 17.34 11.652 17.228 11.4C17.168 11.284 17.12 11.18 17.072 11.072C17.016 10.952 16.96 10.832 16.9 10.716C16.86 10.628 16.812 10.544 16.78 10.464L16.428 9.816C16.38 9.728 16.46 9.62 16.556 9.648L18.756 10.244H18.764C18.768 10.244 18.768 10.244 18.772 10.244L19.06 10.328L19.38 10.416L19.496 10.448V9.144C19.496 8.512 20 8 20.628 8C20.94 8 21.224 8.128 21.424 8.336C21.628 8.544 21.756 8.828 21.756 9.144V11.084L21.992 11.148C22.008 11.156 22.028 11.164 22.044 11.176C22.1 11.216 22.184 11.28 22.288 11.36C22.372 11.424 22.46 11.504 22.564 11.588C22.776 11.76 23.032 11.98 23.308 12.232C23.38 12.296 23.452 12.36 23.52 12.428C23.876 12.76 24.276 13.148 24.66 13.58C24.768 13.704 24.872 13.824 24.98 13.956C25.084 14.088 25.2 14.216 25.296 14.344C25.428 14.516 25.564 14.696 25.688 14.884C25.744 14.972 25.812 15.064 25.864 15.152C26.024 15.388 26.16 15.632 26.292 15.876C26.348 15.988 26.404 16.112 26.452 16.232C26.6 16.56 26.716 16.892 26.788 17.228C26.812 17.3 26.828 17.376 26.836 17.448V17.464C26.86 17.56 26.868 17.664 26.876 17.772C26.908 18.112 26.892 18.456 26.82 18.8C26.788 18.944 26.748 19.08 26.7 19.228C26.648 19.368 26.6 19.512 26.536 19.652C26.412 19.936 26.268 20.224 26.096 20.488C26.04 20.588 25.972 20.692 25.908 20.792C25.836 20.896 25.76 20.996 25.696 21.092C25.604 21.216 25.508 21.344 25.408 21.46C25.32 21.58 25.232 21.7 25.132 21.808C24.996 21.972 24.864 22.124 24.724 22.272C24.644 22.368 24.556 22.468 24.464 22.556C24.376 22.656 24.284 22.744 24.204 22.824C24.064 22.964 23.952 23.068 23.856 23.16L23.628 23.364C23.596 23.396 23.552 23.412 23.508 23.412H21.756V25.656H23.96C24.452 25.656 24.92 25.484 25.3 25.16C25.428 25.048 25.992 24.56 26.66 23.824C26.684 23.796 26.712 23.78 26.744 23.772L32.828 22.012C32.944 21.98 33.056 22.064 33.056 22.184V23.472Z" fill="white"/>
</svg>
