<svg width="40" height="40" viewBox="0 0 40 40" fill="none" xmlns="http://www.w3.org/2000/svg">
<path d="M33.3 8.61562C30.1156 6.05312 25.0781 5.61874 24.8625 5.60312C24.5281 5.57499 24.2094 5.76249 24.0719 6.07187C24.0594 6.09062 23.95 6.34374 23.8281 6.73749C25.9344 7.09374 28.5219 7.80937 30.8625 9.26249C31.2375 9.49374 31.3531 9.98749 31.1219 10.3625C30.9687 10.6094 30.7094 10.7437 30.4406 10.7437C30.2969 10.7437 30.15 10.7031 30.0187 10.6219C25.9937 8.12499 20.9687 7.99999 20 7.99999C19.0312 7.99999 14.0031 8.12499 9.98123 10.6219C9.60623 10.8562 9.11248 10.7406 8.88123 10.3656C8.64685 9.98749 8.76248 9.49687 9.13748 9.26249C11.4781 7.81249 14.0656 7.09374 16.1719 6.74062C16.05 6.34374 15.9406 6.09374 15.9312 6.07187C15.7906 5.76249 15.475 5.56874 15.1375 5.60312C14.9219 5.61874 9.88435 6.05312 6.65623 8.64999C4.97185 10.2094 1.59998 19.3219 1.59998 27.2C1.59998 27.3406 1.63748 27.475 1.70623 27.5969C4.03123 31.6844 10.3781 32.7531 11.825 32.8C11.8312 32.8 11.8406 32.8 11.85 32.8C12.1062 32.8 12.3469 32.6781 12.4969 32.4719L13.9594 30.4594C10.0125 29.4406 7.99685 27.7094 7.88123 27.6062C7.54998 27.3156 7.51873 26.8094 7.81248 26.4781C8.1031 26.1469 8.60935 26.1156 8.9406 26.4062C8.98748 26.45 12.7 29.6 20 29.6C27.3125 29.6 31.025 26.4375 31.0625 26.4062C31.3937 26.1187 31.8969 26.1469 32.1906 26.4812C32.4812 26.8125 32.45 27.3156 32.1187 27.6062C32.0031 27.7094 29.9875 29.4406 26.0406 30.4594L27.5031 32.4719C27.6531 32.6781 27.8937 32.8 28.15 32.8C28.1594 32.8 28.1687 32.8 28.175 32.8C29.6219 32.7531 35.9687 31.6844 38.2937 27.5969C38.3625 27.475 38.4 27.3406 38.4 27.2C38.4 19.3219 35.0281 10.2094 33.3 8.61562ZM14.8 24C13.2531 24 12 22.5687 12 20.8C12 19.0312 13.2531 17.6 14.8 17.6C16.3469 17.6 17.6 19.0312 17.6 20.8C17.6 22.5687 16.3469 24 14.8 24ZM25.2 24C23.6531 24 22.4 22.5687 22.4 20.8C22.4 19.0312 23.6531 17.6 25.2 17.6C26.7469 17.6 28 19.0312 28 20.8C28 22.5687 26.7469 24 25.2 24Z" fill="white"/>
</svg>
